M48
;Layer_Color=9474304
;FILE_FORMAT=4:4
METRIC,LZ
;TYPE=PLATED
T1F00S00C0.3000
T2F00S00C0.7200
T3F00S00C0.7500
T4F00S00C0.8500
T5F00S00C0.9000
T6F00S00C1.6500
T7F00S00C2.6000
;TYPE=NON_PLATED
T8F00S00C7.0000
%
T01
X00536Y-00409
X00586
X00611Y-00359
X00661
X00686Y-00309
X00575Y-0031
Y-00275
X005
X00525Y-0031
X005375Y-00344866
X0055Y-001575
Y-0014
X00560069Y-0013225
Y-00148119
X00587655
X0058Y-0014
X00587569Y-0013225
X0058Y-001575
X00725Y-0021
X003775Y-002423
Y-00251296
X00368504Y-002423
X003675Y-002675
X003575
X00347131
X00335Y-0028
X0035Y-003
X0039
X00405Y-0028
X0039925Y-00337061
X0041195Y-00336998
X004325Y-003375
X0042Y-00352846
X00405
X00426044Y-00367174
X00435498Y-003875
X00456915Y-00375
X0045Y-0043
X00486Y-00409
X003575Y-00337002
X00345Y-003375
X0031
X00298899Y-00345734
X00314287Y-003219
X00236Y-00309
X00186
X0019Y-00275
X00254792Y-00275217
X002225Y-0034575
X00161Y-00359
X00132961Y-00353713
X00120461
X001175Y-0036
X00205Y-001575
Y-0014
X00215069Y-0013225
Y-00148119
X00242655
X00235Y-0014
X00242569Y-0013225
X00235Y-001575
X003525Y-00187071
X003775Y-00148119
X0003Y-00146629
X00022962Y-00093384
X00029123Y-00216264
Y-00225261
X00039479
Y-002381
X00029123
X00017875
Y-00225325
X-00006312Y-00225261
Y-00216264
Y-002381
X-00002627Y-0025675
X-00004644Y-00268225
X-00015
X00018767
X00029123
X00039479
X00061Y-00259
X00015042Y-0025675
X00036Y-00309
X00086
X0004702Y-00369539
X00039805Y-00384018
X00065Y-0043
X-00039Y-00359
X-00089
X-00139
X-001975Y-00344866
X-0022Y-0027
X-0016
X-00155Y-00156616
Y-00139116
X-00144931Y-00131366
Y-00147235
X-00117345
X-00110053Y-00139116
X-00125
X-00117431Y-00131366
X-00125Y-00156616
X-00064Y-00309
X-00014
X-002775Y-00372758
X-00311456Y-00367174
X-003175Y-00375
X-003175Y-00352846
X-003325
X-0034925Y-00354596
X-0036365Y-00354733
X-00373706Y-00354974
X-00387404Y-00355304
Y-00340097
X-00401795
X-004361Y-00339502
X-0045Y-003469
X-00423846Y-003215
X-00375718Y-00295605
X-00375Y-00275
X-00345
Y-00295
X-0033825Y-00337061
X-0032555Y-00336998
X-00305Y-003375
X-003425Y-0040425
X-00367324Y-0040075
X-00377127Y-00394407
X-00387404Y-003925
X-00414663Y-003875
X-00475Y-00375
X-005125Y-0034575
X-00592668Y-00350327
Y-00371998
X-00614Y-00409
X-0064259Y-00347778
X-006625Y-003475
X-006575Y-002625
X-0065Y-0027
X-0055Y-00275
X-00471804Y-00277691
X-0047Y-001575
X-00462346Y-00148119
X-0047Y-0014
X-00462431Y-0013225
X-00489931
Y-00148119
X-005Y-0014
Y-001575
X-00352445Y-001875
X-0034Y-001925
X-0035595Y-00233304
Y-002423
X-00364945
X-003289Y-00145845
Y-00110877
X-00325Y-0043
X-00705Y-003
X-00725Y-00215
X-00545413Y-00053907
X-00505886Y-00054381
X-00500714Y-00038703
X-00483275Y-00018621
X-00467644Y00006
X-00495112Y00034561
X-00561953Y00044239
X-00570508Y00004094
X-00225734
X-00217179Y00044239
X-00150337Y00034561
X-00122869Y00006
X-00138329Y-00019528
X-0015594Y-00038703
X-00161111Y-00054381
X-00200413Y-00053907
X-00001601Y-00073746
X-000069Y00095334
X00143047Y00044239
X00134492Y00004094
X00159587Y-00053907
X00199114Y-00054381
X00204286Y-00038703
X00221725Y-00018621
X00237357Y00006
X00209888Y00034561
X00488112Y00044239
X00479557Y00004094
X00504652Y-00053907
X00544179Y-00054381
X00549351Y-00038703
X0056679Y-00018621
X00582421Y00006
X00554953Y00034561
T02
X003525Y-00149053
Y-0013635
Y-0012365
Y-0011095
X0Y-00110947
Y-0012365
Y-0013635
Y-0014905
X-003525Y-00149053
Y-0013635
Y-0012365
Y-0011095
X-0001905Y0013
X-0000635
X0000635
X00019053
T03
X-000125Y-00331162
X000129
X000637
Y-00204162
X-000633
T04
X-00371158Y00099158
X-00335921Y00099079
X-00443Y00171
X-00264079Y00170921
X00269079Y00170921
X00340921Y00099079
X00374628
X0044647Y00170921
T05
X004996Y-004002
Y-003748
X00525
Y-004002
X005504
Y-003748
X005377Y-002931
X005123
X005631
X005885
X006139
Y-002169
X005885
X005631
X005377
X005123
X004869
X004615
X004361
Y-002931
X004615
X004869
X002989
X002735
X002481
X002227
X001973
X001719
X001465
X001211
Y-002169
X001465
X001719
X001973
X002227
X002481
X002735
X002989
X-001211Y-00216016
X-001465
X-001719
X-001973
X-002227
X-002481
X-002735
Y-00292216
X-002481
X-002227
X-001973
X-001719
X-001465
X-001211
X-000254Y-003748
X0
X000254
Y-004002
X0
X-000254
X-002989Y-00292216
Y-00216016
X-004361Y-002169
X-004615
X-004869
X-005123
X-005377
X-005631
X-005885
X-006139
Y-002931
X-005885
X-005631
X-005377
X-005123
X-004869
X-004615
X-004361
X-004996Y-003748
Y-004002
X-00525
Y-003748
X-005504
Y-004002
T06
X00525Y-00101303
X0048299Y-00092182
X0018Y-00101303
X00137991Y-00092182
X-0018Y-00101303
X-0022201Y-00092182
X-00525Y-00101303
X-0056701Y-00092182
X-00601454Y-0006646
X-00622131Y-00028772
X-00625317Y00014099
X-00610438Y0005443
X-00580173Y00084959
X-00539973Y0010019
X-00497077Y00097378
X-00459209Y00077031
X-00433189Y00042812
X-00423701Y00000884
X-00432455Y-00041203
X-00457875Y-00075871
X-00256454Y-0006646
X-00277131Y-00028772
X-00280317Y00014099
X-00265438Y0005443
X-00235173Y00084959
X-00194974Y0010019
X-00152077Y00097378
X-00114209Y00077031
X-00088189Y00042812
X-00078701Y00000884
X-00087455Y-00041203
X-00112875Y-00075871
X00082869Y-00028772
X00079683Y00014099
X00094562Y0005443
X00124827Y00084959
X00165026Y0010019
X00207923Y00097378
X00245791Y00077031
X00271811Y00042812
X00281299Y00000884
X00272545Y-00041203
X00247125Y-00075871
X00103546Y-0006646
X00448546
X00427869Y-00028772
X00424683Y00014099
X00439562Y0005443
X00469827Y00084959
X00510027Y0010019
X00552923Y00097378
X00590791Y00077031
X00616811Y00042812
X00626299Y00000884
X00617545Y-00041203
X00592125Y-00075871
T07
X007Y-0024
X-007
X-00525Y00185
X00525
T08
X-00525Y0
X-0018
X0018
X00525
M30
