M48
;Layer_Color=9474304
;FILE_FORMAT=4:4
METRIC,LZ
;TYPE=PLATED
T1F00S00C0.3000
T2F00S00C0.5000
T3F00S00C0.7500
T4F00S00C0.9000
T5F00S00C0.9398
T6F00S00C0.9500
T7F00S00C1.0000
T8F00S00C2.6000
%
T01
X00508939Y-00343964
X005225
X00525Y-003025
X0054
X005725
X005875
X00636Y-00309
X00686
X00661Y-00259
X00611
X00636Y-00209
X00686
X00661Y-00159
X0064Y-00145
Y-0011
X00665Y-000975
X006975
X00725Y-000925
Y-00105
X00586Y-00109
X0059Y-00135
X00575Y-0015
X00586Y-00209
X00536
X00511Y-00159
X00525Y-00125
Y-001
X005005Y-00117439
X00611Y-00359
X00661
X00586Y-00409
X00486
X00436
X00386
X00336
X00361Y-00359
X00411
X00461
X004775Y-003025
X004925
X00436Y-00309
X00386
X00336
X00286
X00311Y-00259
X00361
X00411
X00436Y-00209
X00486
X00461Y-00159
X00411
X003625Y-00155
X0035
X00335
X00311Y-00159
X003125Y-0018
X003025
X00286Y-00209
X00336
X00386
X0037979Y-0012858
X00375Y-001175
X003675Y-0011
X00362251Y-00125
X0035Y-00125
X00307387Y-00102387
X002875
X00263097Y-00101677
X0022Y-001175
Y-0013
Y-001425
Y-0018
X00236Y-00209
X00186
X00136
X00161Y-00259
X00211
X00261
X002775Y-00155
X00186Y-00109
X00136
X00111Y-00259
X001075Y-003775
X00211Y-00359
X00236698Y-003775
X004075Y-001
X004225
X004425
X004525
X004725
X00492911Y-00100451
X00086Y-00109
X00036
X-00014
X-00064
X-00114
Y-00209
X-00064
X-00014
X00036
X00086
X00061Y-00259
X00011
X-00039
X-00089
X-00139
X-00189
X-00239
X-00275Y-00265
X-002955Y-00258
X-0028235Y-00213753
X-001815Y-00209
X-00164
X-001815Y-00164
X-00164Y-00409
X-00114
X-00064
X-00214
X-00264
X00061Y-00359
X-00314Y-00409
X-00364
X-00419011Y-004002
X-0046
X-00489Y-00359
X-004975Y-00295
X-00475
Y-002725
X-004975
X-005225
Y-002825
Y-00295
X-005475Y-002825
X-005504Y-003075
Y-003175
Y-003275
X-005875Y-0031
Y-003
X-005875Y-00290953
X-00639Y-00259
X-0066335Y-00213753
X-006475Y-0016
X-0065591Y-0015
X-00625Y-0015645
X-00635781Y-0017
X-00539Y-00159
X-00489
X-00439
X-0045Y-0022
X-00425
X-0040935Y-00213753
X-00413443Y-00249502
X-00425Y-002725
Y-00295
X-004
X-004Y-002825
X-004Y-002725
X-00375Y-002825
X-00365Y-003075
X-003325Y-00290953
X-00315Y-00245
X-0045Y-002725
Y-00295
X-005025Y-00249502
X-004975Y-0022
X-00475
X-0053635Y-00213753
X-00514Y-00109
X-00464
X-00564
X-00664Y-00309
X-00614Y-00409
X-006975Y00073703
X-00682922
X-006575Y00073706
X-006425
X-006275
X-006125
X-005925Y00073703
X-00575Y00073706
X-00560429Y00057402
X-005775Y0004
X-005925Y0004
X-0061255Y00033753
X-00625Y00035
X-00635
X-00644015Y00040501
X-00655Y0004
X-0066335Y00033753
X-0067Y00057402
X-00664Y00091
X-00639Y00141
X-00589
X-00539
X-00515959Y00146009
X-00475Y00173021
X-0040935
X-0035
X-00314502Y00168535
X-003125Y00094562
X-00335Y00078652
X-003475
X-00347002Y000525
X-003675Y000425
X-0040935Y00033753
X-004125Y00093007
X-00438824Y00087998
X-00475Y00093007
X-00498392Y000575
Y00033753
X-0053635
X-005725Y-000175
X-00589474Y-00020526
X-0061255Y-00019953
Y-0003
X-005875Y-000425
Y-0005
X-00575
Y-000425
X-00539Y-00059
X-00489
X-00439
X-003125Y00052485
X-0028235Y000525
Y00033753
X-002825Y00085
X-002875Y00094562
X-0025Y00085
X-0028235Y00137987
X-001675Y001375
Y00102002
X-001575Y000925
X-00114Y00091
X-001115Y00052998
X-00124828Y00052559
X-00105022Y0002951
X-00144883
Y0
X-00145Y-00017125
X-00139Y-00059
X-00089
X-00039
X00011
X00061
X00062193Y-000025
X00085Y0
X00077721Y00007646
X000775Y00018458
X000875Y00015
X-00014Y-00009
X-00064
X-00074679Y000525
X-00025Y001075
X00036Y00091
X00049969Y0019825
X-0005
X-001675Y00175
X-00135Y001275
X00111Y00041
X00161
X00211
X00209163Y00001311
X00196368
X00185
X00150318Y-0004694
X00137523
X00126155
X00211Y-00059
X00252498Y-0009
X00347251Y-00074648
X003575Y-000775
X003675Y-0008608
X00375Y-0007858
X0037979Y-000675
X00395Y-000554
X004125Y-00051834
X004275Y-00053347
X00434Y-000404
X004575Y-00019
X00478Y-00025498
X0049Y0003
X004525
X004425Y000135
X0042Y0003
X003825
X0035
X003
X00261Y00041
X002575Y00020512
X005275Y0003
X00565
X006025
X0064
X006775
X00715
X00636Y-00009
X0064Y-0005
X006625
X0064Y-00085
X00575
X0059Y-000625
X00575Y-000425
X00586Y-00009
X00536
X00525Y-0007
X005005Y-00082561
T02
X00296058Y-001325
X00317058
T03
X00402Y-001254
X00424
X00446
X00478
Y-000746
X00446
X00424
X00402
T04
X001373Y-00355
X0015
X001627
X002619Y-00355001
X002873
X003127
X003381
X0Y-00038
Y00038
X00045Y001098
Y001352
X-001863Y001242
Y000988
X-002117
X-002371
Y001242
Y001496
Y00175
X-002625
Y001496
Y001242
Y000988
X-002117Y001242
Y001496
X-001863
Y00175
X-002117
X-000925Y-000123
Y-000377
T05
X004996Y-004002
X00525
X005504
Y-003748
X00525
X004996
X000254
Y-004002
X0
Y-003748
X-000254
Y-004002
X-004996
Y-003748
X-00525
Y-004002
X-005504
Y-003748
T06
X0033Y-000575
X0035Y-0005
T07
X-00455Y000575
Y001025
X-0039
Y000575
T08
X007Y-0024
X-007
X-00525Y00185
X00525
M30
