M48
;Layer_Color=9474304
;FILE_FORMAT=4:4
METRIC,LZ
;TYPE=PLATED
T01F00S00C0.3000
T02F00S00C0.7200
T03F00S00C0.7500
T04F00S00C0.8500
T05F00S00C0.9000
T06F00S00C1.4500
T07F00S00C2.6000
;TYPE=NON_PLATED
T08F00S00C7.0000
%
T01
X00536Y-00409
X00586
X00611Y-00359
X00661
X00686Y-00309
X00575Y-0031
Y-00275
X005
X00525Y-0031
X005375Y-00344866
X005325Y-001575
X00540155Y-00148119
X005325Y-0014
X00540069Y-0013225
X00512569
Y-00148119
X005625Y-0014
Y-001575
X00725Y-0021
X003775Y-002423
Y-00251296
X00368504Y-002423
X003675Y-002675
X003575
X00347131
X00335Y-0028
X0035Y-003
X0039
X00405Y-0028
X0039925Y-00337061
X0041195Y-00336998
X004325Y-003375
X0042Y-00352846
X00405
X00426044Y-00367174
X00435498Y-003875
X00456915Y-00375
X0045Y-0043
X00486Y-00409
X003575Y-00337002
X00345Y-003375
X0031
X00298899Y-00345734
X00314287Y-003219
X00236Y-00309
X00186
X0019Y-00275
X00254792Y-00275217
X002225Y-0034575
X00161Y-00359
X00132961Y-00353713
X00120461
X001175Y-0036
X00192569Y-00148119
Y-0013225
X00220069
X002125Y-0014
X00220155Y-00148119
X002125Y-001575
X002425
Y-0014
X003775Y-00148119
X003525Y-00187071
X00039479Y-00225261
X00029123
Y-00216264
X00017875Y-00225325
Y-002381
X00029123
X00039479
Y-00268225
X00029123
X00018767
X00015042Y-0025675
X-00002627
X-00004644Y-00268225
X-00015
X-00006312Y-002381
Y-00225261
Y-00216264
X-00014Y-00309
X00036
X00086
X00061Y-00259
X0004702Y-00369539
X00039805Y-00384018
X00065Y-0043
X-00039Y-00359
X-00089
X-00139
X-001975Y-00344866
X-0022Y-0027
X-0016
X-00155Y-00156616
Y-00139116
X-00170053
X-00185
X-00177431Y-00131366
X-00177345Y-00147235
X-00185Y-00156616
X-00204931Y-00147235
Y-00131366
X0003Y-00146629
X00022962Y-00093384
X-00064Y-00309
X-002775Y-00372758
X-00311456Y-00367174
X-003175Y-00375
X-003175Y-00352846
X-003325
X-0034925Y-00354596
X-0036365Y-00354733
X-00373706Y-00354974
X-00387404Y-00355304
Y-00340097
X-00401795
X-004361Y-00339502
X-0045Y-003469
X-00423846Y-003215
X-00375718Y-00295605
X-00375Y-00275
X-00345
Y-00295
X-0033825Y-00337061
X-0032555Y-00336998
X-00305Y-003375
X-003425Y-0040425
X-00367324Y-0040075
X-00377127Y-00394407
X-00387404Y-003925
X-00414663Y-003875
X-00475Y-00375
X-005125Y-0034575
X-00592668Y-00350327
Y-00371998
X-00614Y-00409
X-0064259Y-00347778
X-006625Y-003475
X-006575Y-002625
X-0065Y-0027
X-0055Y-00275
X-00471804Y-00277691
X-00364945Y-002423
X-0035595
Y-00233304
X-00352445Y-001875
X-0034Y-001925
X-003289Y-00145845
Y-00110877
X-00496719Y-0014
Y-001575
X-00526719
X-00519064Y-00148119
X-00526719Y-0014
X-0051915Y-0013225
X-0054665
Y-00148119
X-00325Y-0043
X-00705Y-003
X-00725Y-00215
X-00545413Y-00053907
X-00505886Y-00054381
X-00500714Y-00038703
X-00483275Y-00018621
X-00467644Y00006
X-00495112Y00034561
X-00561953Y00044239
X-00570508Y00004094
X-00225734
X-00217179Y00044239
X-00150337Y00034561
X-00122869Y00006
X-00138329Y-00019528
X-0015594Y-00038703
X-00161111Y-00054381
X-00200413Y-00053907
X-00001601Y-00073746
X-000069Y00095334
X00143047Y00044239
X00134492Y00004094
X00159587Y-00053907
X00199114Y-00054381
X00204286Y-00038703
X00221725Y-00018621
X00237357Y00006
X00209888Y00034561
X00488112Y00044239
X00479557Y00004094
X00504652Y-00053907
X00544179Y-00054381
X00549351Y-00038703
X0056679Y-00018621
X00582421Y00006
X00554953Y00034561
T02
X003525Y-00149053
Y-0013635
Y-0012365
Y-0011095
X0Y-00110947
Y-0012365
Y-0013635
Y-0014905
X-003525Y-00149053
Y-0013635
Y-0012365
Y-0011095
X-0001905Y0013
X-0000635
X0000635
X00019053
T03
X-000125Y-00331162
X000129
X000637
Y-00204162
X-000633
T04
X-00371158Y00099158
X-00335921Y00099079
X-00443Y00171
X-00264079Y00170921
X00269079Y00170921
X00340921Y00099079
X00374628
X0044647Y00170921
T05
X004996Y-004002
Y-003748
X00525
Y-004002
X005504
Y-003748
X005377Y-002931
X005123
X005631
X005885
X006139
Y-002169
X005885
X005631
X005377
X005123
X004869
X004615
X004361
Y-002931
X004615
X004869
X002989
X002735
X002481
X002227
X001973
X001719
X001465
X001211
Y-002169
X001465
X001719
X001973
X002227
X002481
X002735
X002989
X-001211Y-00216016
X-001465
X-001719
X-001973
X-002227
X-002481
X-002735
Y-00292216
X-002481
X-002227
X-001973
X-001719
X-001465
X-001211
X-000254Y-003748
X0
X000254
Y-004002
X0
X-000254
X-002989Y-00292216
Y-00216016
X-004361Y-002169
X-004615
X-004869
X-005123
X-005377
X-005631
X-005885
X-006139
Y-002931
X-005885
X-005631
X-005377
X-005123
X-004869
X-004615
X-004361
X-004996Y-003748
Y-004002
X-00525
Y-003748
X-005504
Y-004002
T06
X-00574018Y-0007548
X-00600905Y-00048357
X-00614124Y-00012526
X-00611294Y00025561
X-00592924Y00059045
X-00562322Y00081896
X-00525Y0009
X-00487678Y00081897
X-00457076Y00059045
X-00438706Y00025561
X-00435876Y-00012526
X-00449095Y-00048357
X-00475983Y-0007548
X-00511697Y-00089011
X-00229018Y-0007548
X-00255905Y-00048357
X-00269124Y-00012526
X-00266294Y00025561
X-00247924Y00059045
X-00217322Y00081896
X-0018Y0009
X-00142678Y00081897
X-00112076Y00059045
X-00093706Y00025561
X-00090876Y-00012526
X-00104095Y-00048357
X-00130983Y-0007548
X-00166697Y-00089011
X00090876Y-00012526
X00093706Y00025561
X00112076Y00059045
X00142678Y00081896
X0018Y0009
X00217322Y00081897
X00247924Y00059045
X00266294Y00025561
X00269124Y-00012526
X00255905Y-00048357
X00229018Y-0007548
X00193303Y-00089011
X00130982Y-0007548
X00104095Y-00048357
X00448934Y-00048217
X00435715Y-00012386
X00438546Y00025701
X00456916Y00059185
X00487517Y00082036
X00475821Y-0007534
X00538142Y-00088871
X00573857Y-0007534
X00600745Y-00048217
X00613964Y-00012386
X00611133Y00025701
X00592763Y00059185
X00562162Y00082037
X00524839Y0009014
T07
X007Y-0024
X-007
X-00525Y00185
X00525
T08
X-00525Y0
X-0018
X0018
X00524839Y0000014
M30
