G04*
G04 #@! TF.GenerationSoftware,Altium Limited,Altium Designer,23.11.1 (41)*
G04*
G04 Layer_Color=0*
%FSLAX44Y44*%
%MOMM*%
G71*
G04*
G04 #@! TF.SameCoordinates,E21C9756-33A7-4500-BCD2-950CAF07A2E9*
G04*
G04*
G04 #@! TF.FilePolarity,Positive*
G04*
G01*
G75*
%ADD24C,0.0254*%
G36*
X-70000Y0D02*
Y-3439D01*
X-69326Y-10283D01*
X-67984Y-17029D01*
X-65988Y-23611D01*
X-63356Y-29965D01*
X-60113Y-36031D01*
X-56292Y-41749D01*
X-51929Y-47066D01*
X-47066Y-51929D01*
X-41749Y-56292D01*
X-36031Y-60113D01*
X-29965Y-63356D01*
X-23611Y-65988D01*
X-17029Y-67984D01*
X-10283Y-69326D01*
X-3439Y-70000D01*
X0D01*
X3439D01*
X10283Y-69326D01*
X17029Y-67984D01*
X23611Y-65988D01*
X29965Y-63356D01*
X36031Y-60113D01*
X41749Y-56292D01*
X47066Y-51929D01*
X51929Y-47066D01*
X56292Y-41749D01*
X60113Y-36031D01*
X63356Y-29965D01*
X65988Y-23611D01*
X67984Y-17029D01*
X69326Y-10283D01*
X70000Y-3439D01*
Y0D01*
Y3439D01*
X69326Y10283D01*
X67984Y17029D01*
X65988Y23611D01*
X63356Y29965D01*
X60113Y36031D01*
X56292Y41749D01*
X51929Y47066D01*
X47066Y51929D01*
X41749Y56292D01*
X36031Y60113D01*
X29965Y63356D01*
X23611Y65988D01*
X17029Y67984D01*
X10283Y69326D01*
X3439Y70000D01*
X0D01*
X-3439D01*
X-10283Y69326D01*
X-17029Y67984D01*
X-23611Y65988D01*
X-29965Y63356D01*
X-36031Y60113D01*
X-41749Y56292D01*
X-47066Y51929D01*
X-51929Y47066D01*
X-56292Y41749D01*
X-60113Y36031D01*
X-63356Y29965D01*
X-65988Y23611D01*
X-67984Y17029D01*
X-69326Y10283D01*
X-70000Y3439D01*
Y0D01*
D01*
D02*
G37*
D24*
X-110000D02*
G03*
X0Y-110000I110000J0D01*
G01*
D02*
G03*
X110000Y0I0J110000D01*
G01*
D02*
G03*
X0Y110000I-110000J0D01*
G01*
D02*
G03*
X-110000Y0I0J-110000D01*
G01*
M02*
