M48
;Layer_Color=9474304
;FILE_FORMAT=4:4
METRIC,LZ
;TYPE=PLATED
T01F00S00C0.3000
T02F00S00C0.8500
T03F00S00C0.9000
%
T01
X0Y-0010469
X00043414Y-00095264
X0007901Y-00068682
X00088294Y0005625
X00057018Y000878
X00015474Y0010354
X-00028856Y00100634
X-0006799Y00079607
X-00094881Y00044244
X-0010469Y-0
X-00095639Y-00042581
X-00069369Y-00078408
X00100378Y-00029733
X00103671Y0001457
T02
X-00059871Y-00067197
X-00037322Y-00081896
X0Y-0009
X00067717Y-00059282
X00089167Y00012214
X00076074Y00048092
X00049281Y00075309
X00013614Y00088964
X-00024505Y000866
X-00058211Y0006864
X-00081434Y0003832
X-00089993Y00001099
X-00082346Y-00036319
T03
X00086204Y-00025863
M30
